# xmcd
#
# Track frame offsets: 
#        150
#        38133
#        52071
#        92946
#        127394
#        149540
#        166238
#        207573
#        223642
#        235429
#
# Disc length: 3404 seconds
#
# Revision: 0
# Processed by: cddbd v1.5.2PL0 Copyright (c) Steve Scherf et al.
# Submitted via: ExactAudioCopy v0.90b4
#
DISCID=a40d4a0a
DTITLE=Magyar Atom - Magyar Atom Live
DYEAR=2003
DGENRE=Blues
TTITLE0=Crazy Mama
TTITLE1=Wait Until Tomorrow
TTITLE2=Medley
TTITLE3=Little Wing
TTITLE4=Foxy Lady
TTITLE5=Hard to Handle
TTITLE6=Red House
TTITLE7=Come One
TTITLE8=Fire
TTITLE9=Bye Bye Blues
EXTD=
EXTT0=
EXTT1=
EXTT2=
EXTT3=
EXTT4=
EXTT5=
EXTT6=
EXTT7=
EXTT8=
EXTT9=
PLAYORDER=
